<?xml version="1.0" encoding="UTF-8" standalone="no"?>
<svg width="230px" height="333px" viewBox="0 0 230 333" version="1.1" xmlns="http://www.w3.org/2000/svg" xmlns:xlink="http://www.w3.org/1999/xlink" xmlns:sketch="http://www.bohemiancoding.com/sketch/ns">
    <!-- Generator: Sketch 3.3.3 (12072) - http://www.bohemiancoding.com/sketch -->
    <title>Boot-logo-trans</title>
    <desc>Created with Sketch.</desc>
    <defs></defs>
    <g id="Page-1" stroke="none" stroke-width="1" fill="none" fill-rule="evenodd" sketch:type="MSPage">
        <g id="Boot-logo-trans" sketch:type="MSLayerGroup">
            <path d="M227.8926,106.2796 C232.6336,92.1446 228.5666,82.1406 224.3196,76.2376 C218.0286,67.4916 207.4156,62.1916 195.5096,59.0726 C196.7236,34.6246 196.2756,5.9726 188.4516,1.1776 C177.5646,-5.4934 156.9416,22.6616 127.5806,31.2556 C98.2196,39.8486 100.3676,11.3776 88.9096,24.8106 C83.0346,31.6966 81.7666,51.8476 82.1056,71.4226 C66.4396,80.3116 53.4726,94.5406 60.2776,119.3076 C76.4796,178.2826 72.1536,188.0866 63.5366,207.6196 C60.3296,214.8896 48.0386,224.2796 37.1946,232.5626 C19.1626,246.3396 0.5156,260.5846 0.5156,279.4636 C0.5156,296.6916 7.1336,310.7516 19.6546,320.1236 C30.1876,328.0066 44.5546,332.1736 61.2006,332.1736 C86.4806,332.1736 114.8346,322.3816 135.1956,306.6176 C153.9966,292.0616 166.9426,288.8916 178.3646,286.0946 C190.7486,283.0626 203.5556,279.9266 215.5356,263.5476 C233.8246,238.5386 228.6346,222.2386 223.1396,204.9806 C216.9876,185.6616 209.3316,161.6186 227.8926,106.2796" id="Fill-1" fill="#363B37" sketch:type="MSShapeGroup"></path>
            <path d="M103.6826,289.463 C66.7796,313.287 19.4076,301.759 12.5226,279.754 C12.8006,331.782 86.5936,329.069 127.8496,297.13 C169.1826,265.13 186.9166,282.35 205.8496,256.463 C215.8916,242.732 217.3596,233.033 215.6306,223.067 C209.3426,250.1 139.1676,266.555 103.6826,289.463" id="Fill-3" fill="#EDC418" sketch:type="MSShapeGroup"></path>
            <path d="M194.7531,71.3127 C193.7731,84.6977 192.5481,94.7607 192.3431,95.2877 C188.1141,106.1337 144.0571,108.9627 129.1821,110.1297 C112.1821,111.4627 108.2451,169.2937 103.9481,192.2097 C100.4291,210.9757 86.1821,125.4627 84.8491,113.7967 C84.3661,109.5667 83.2611,98.4737 82.5941,85.4107 C69.6771,94.8267 68.8291,105.1367 71.8491,116.1297 C88.5161,176.7967 84.5161,189.7967 74.5161,212.4627 C67.0351,229.4197 36.0511,245.4437 20.9151,262.2097 C28.2761,272.3747 50.7561,295.7767 91.1821,274.9627 C136.0121,251.8827 199.8151,227.6967 207.4471,193.8777 C202.9141,174.9337 201.1381,148.3117 216.5161,102.4627 C222.0681,85.9087 211.6071,76.2607 194.7531,71.3127" id="Fill-5" fill="#EDC418" sketch:type="MSShapeGroup"></path>
            <path d="M111.8256,73.3326 C111.8256,78.4746 109.5816,82.6426 106.8126,82.6426 C104.0446,82.6426 101.7996,78.4746 101.7996,73.3326 C101.7996,68.1906 104.0446,64.0226 106.8126,64.0226 C109.5816,64.0226 111.8256,68.1906 111.8256,73.3326" id="Fill-7" fill="#FFFFFF" sketch:type="MSShapeGroup"></path>
            <path d="M168.3997,64.7391 C168.3997,74.2311 163.5907,81.9261 157.6577,81.9261 C151.7257,81.9261 146.9157,74.2311 146.9157,64.7391 C146.9157,55.2471 151.7257,47.5521 157.6577,47.5521 C163.5907,47.5521 168.3997,55.2471 168.3997,64.7391" id="Fill-9" fill="#FFFFFF" sketch:type="MSShapeGroup"></path>
        </g>
    </g>
</svg>