<?xml version="1.0" encoding="UTF-8" standalone="no"?>
<svg width="513px" height="513px" viewBox="0 0 513 513" version="1.1" xmlns="http://www.w3.org/2000/svg" xmlns:xlink="http://www.w3.org/1999/xlink" xmlns:sketch="http://www.bohemiancoding.com/sketch/ns">
    <!-- Generator: Sketch 3.3.3 (12072) - http://www.bohemiancoding.com/sketch -->
    <title>Boot-logo-gray</title>
    <desc>Created with Sketch.</desc>
    <defs></defs>
    <g id="Page-1" stroke="none" stroke-width="1" fill="none" fill-rule="evenodd" sketch:type="MSPage">
        <g id="Boot-logo-gray" sketch:type="MSLayerGroup" transform="translate(0.691406, 0.875000)">
            <path d="M0,512 L512,512 L512,0 L0,0 L0,512 Z" id="Fill-1" fill="#363B37" sketch:type="MSShapeGroup"></path>
            <g id="Group-10" transform="translate(113.000000, 69.000000)" sketch:type="MSShapeGroup">
                <path d="M71.2002,352.1729 C52.3772,352.1729 35.9392,347.3169 23.6632,338.1289 C8.5192,326.7939 0.5152,309.9659 0.5152,289.4629 C0.5152,265.6399 22.0892,249.1569 41.1242,234.6159 C49.0132,228.5899 62.2162,218.5049 64.3872,213.5829 C72.2882,195.6729 75.8942,187.4999 60.6352,131.9569 C56.1282,115.5529 56.4932,92.9589 82.0462,75.8789 C81.9902,57.7749 83.3622,37.6279 91.3022,28.3199 C92.8152,26.5459 97.4212,21.1469 104.4362,21.1469 C110.5292,21.1469 114.3912,24.9839 117.2122,27.7849 C120.2042,30.7569 122.3662,32.9039 127.2692,32.9029 C129.4242,32.9029 131.9492,32.4849 134.7712,31.6579 C147.2632,28.0019 158.2542,20.1379 167.9502,13.1999 C178.1282,5.9179 186.1672,0.1649 194.7292,0.1649 C197.9732,0.1649 200.9842,1.0019 203.6762,2.6519 C210.3382,6.7339 213.9322,15.7519 215.3322,31.8919 C216.0392,40.0469 216.2022,50.0789 215.8182,61.7949 C227.6672,66.0459 236.6002,72.2839 242.4372,80.3979 C250.3702,91.4259 252.1232,105.2979 247.3742,119.4599 C229.8532,171.6959 236.6602,193.0779 242.6662,211.9439 C248.3982,229.9429 254.8942,250.3409 233.6072,279.4499 C219.4732,298.7739 203.5442,302.6739 190.7432,305.8079 C179.7772,308.4929 168.4382,311.2699 151.3172,324.5249 C129.2892,341.5779 98.5902,352.1729 71.2002,352.1729" id="Fill-2" fill="#FFFFFF"></path>
                <path d="M167.6577,91.9261 C161.7247,91.9261 156.9157,84.2311 156.9157,74.7391 C156.9157,65.2471 161.7247,57.5521 167.6577,57.5521 C173.5907,57.5521 178.3997,65.2471 178.3997,74.7391 C178.3997,84.2311 173.5907,91.9261 167.6577,91.9261 M116.8127,92.6421 C114.0437,92.6421 111.7997,88.4741 111.7997,83.3321 C111.7997,78.1911 114.0437,74.0231 116.8127,74.0231 C119.5817,74.0231 121.8257,78.1911 121.8257,83.3321 C121.8257,88.4741 119.5817,92.6421 116.8127,92.6421 M237.8927,116.2791 C242.6337,102.1451 238.5667,92.1411 234.3197,86.2371 C228.0287,77.4921 217.4157,72.1911 205.5097,69.0721 C206.7237,44.6251 206.2757,15.9731 198.4517,11.1781 C187.5637,4.5061 166.9417,32.6621 137.5807,41.2551 C108.2187,49.8491 110.3677,21.3781 98.9097,34.8101 C93.0347,41.6971 91.7667,61.8471 92.1057,81.4221 C76.4397,90.3111 63.4727,104.5401 70.2777,129.3081 C86.4797,188.2821 82.1537,198.0861 73.5367,217.6191 C70.3287,224.8901 58.0387,234.2791 47.1947,242.5631 C29.1617,256.3391 10.5157,270.5841 10.5157,289.4631 C10.5157,306.6921 17.1337,320.7511 29.6547,330.1231 C40.1877,338.0061 54.5537,342.1731 71.1997,342.1731 C96.4807,342.1731 124.8347,332.3811 145.1957,316.6171 C163.9967,302.0621 176.9427,298.8921 188.3647,296.0951 C200.7487,293.0631 213.5547,289.9271 225.5347,273.5471 C243.8247,248.5381 238.6347,232.2381 233.1387,214.9811 C226.9877,195.6611 219.3317,171.6181 237.8927,116.2791" id="Fill-4" fill="#363B37"></path>
                <path d="M113.6826,299.463 C76.7796,323.287 29.4076,311.759 22.5226,289.754 C22.8006,341.782 96.5936,339.069 137.8496,307.13 C179.1826,275.13 196.9166,292.35 215.8496,266.463 C225.8916,252.732 227.3596,243.033 225.6306,233.067 C219.3426,260.1 149.1676,276.555 113.6826,299.463" id="Fill-6" fill="#EDC418"></path>
                <path d="M204.7531,81.3127 C203.7731,94.6977 202.5481,104.7607 202.3431,105.2877 C198.1141,116.1337 154.0571,118.9627 139.1821,120.1297 C122.1821,121.4627 118.2451,179.2937 113.9481,202.2097 C110.4291,220.9757 96.1821,135.4627 94.8491,123.7967 C94.3661,119.5667 93.2611,108.4737 92.5941,95.4107 C79.6771,104.8267 78.8291,115.1367 81.8491,126.1297 C98.5161,186.7967 94.5161,199.7967 84.5161,222.4627 C77.0351,239.4197 46.0511,255.4437 30.9151,272.2097 C38.2761,282.3747 60.7561,305.7767 101.1821,284.9627 C146.0121,261.8827 209.8151,237.6967 217.4471,203.8777 C212.9141,184.9337 211.1381,158.3117 226.5161,112.4627 C232.0681,95.9087 221.6071,86.2607 204.7531,81.3127" id="Fill-8" fill="#EDC418"></path>
            </g>
        </g>
    </g>
</svg>